<?xml version="1.0" encoding="UTF-8"?>
<svg id="Layer_1" data-name="Layer 1" xmlns="http://www.w3.org/2000/svg" viewBox="0 0 327.92 328.33">
  <defs>
    <style>
      .cls-1 {
        fill: #1d7dbe;
      }

      .cls-2 {
        fill: #40a2d8;
      }

      .cls-3 {
        fill: none;
        stroke: #231f20;
        stroke-miterlimit: 10;
      }

      .cls-4 {
        fill: #1367af;
      }
    </style>
  </defs>
  <path class="cls-3" d="M96.28,128.99c-.45.82-.93,1.63-1.42,2.43.33-.6.66-1.22.98-1.83.15-.2.29-.4.44-.6Z"/>
  <path class="cls-3" d="M96.28,128.99c-.45.82-.93,1.63-1.42,2.43.33-.6.66-1.22.98-1.83.15-.2.29-.4.44-.6Z"/>
  <path class="cls-4" d="M309.63,327.04l-57.31-24.54c-17.31,11.09-36.85,19.03-57.79,22.98-9.91,1.87-20.14,2.85-30.59,2.85-45.47,0-86.61-18.51-116.31-48.4,15.83-14.44,40.31-31.67,62.52-27.25,9.89,1.97,18.47,7.81,27.37,12.54,51.96,27.58,130.43,20.19,171.42-24.24-4.7,8.88-10.19,17.26-16.37,25.07l19.49,58.76c.49,1.48-1,2.85-2.43,2.24Z"/>
  <path class="cls-1" d="M326.05,189.18c-2.56,16.85-7.68,32.85-14.95,47.59-.7,1.42-1.41,2.82-2.15,4.21-40.99,44.43-119.46,51.82-171.42,24.24-8.9-4.73-17.48-10.57-27.37-12.54-22.21-4.42-46.69,12.81-62.52,27.25-14.9-15-26.92-32.86-35.16-52.69,17.79.94,38.47-7.51,51.26-19.14,7.31-6.65,13.31-14.69,20.89-21.05,7.57-6.36,17.5-11.03,27.2-9.1,8.42,1.68,15.07,7.93,21.3,13.85,10.52,9.98,21.4,19.88,34.25,26.62,24.71,12.95,54.61,12.91,81.59,5.79,25.96-6.86,54.94-19.28,77.08-35.03Z"/>
  <path class="cls-2" d="M327.92,164.36c0,8.43-.64,16.73-1.87,24.82-22.14,15.75-51.12,28.17-77.08,35.03-26.98,7.12-56.88,7.16-81.59-5.79-12.85-6.74-23.73-16.64-34.25-26.62-6.23-5.92-12.88-12.17-21.3-13.85-9.7-1.93-19.63,2.74-27.2,9.1-7.58,6.36-13.58,14.4-20.89,21.05-12.79,11.63-33.47,20.08-51.26,19.14-5.13-12.32-8.79-25.4-10.77-39.02,0-.05-.02-.11-.03-.16-.76-4.61-1.32-9.29-1.67-14.02-.04-.55.46-.99,1-.89,5.44,1.03,11.04,1.58,16.77,1.58,32.3,0,60.58-17.17,76.22-42.88.01-.01.02-.03.02-.04.49-.8.97-1.61,1.42-2.43,6.79-9.27,15.21-17.28,24.83-23.6,10.43-6.89,22.28-11.81,35.02-14.23,1.19-.22,2.39-.43,3.6-.61.61-.09,1.22-.18,1.83-.26,10.74-1.41,22.06-1.15,32.74.7,6.46,1.12,12.83,2.96,18.81,5.63,1.1.49.55,2.14-.63,1.9-9.66-1.95-20-.57-28.69,4.11-9.63,5.18-16.98,14.29-20.31,24.68-.97,3.05-1.55,6.14-1.74,9.32,0,.06,0,.11,0,.17-.04.67-.07,1.34-.08,2.03-.01.22-.01.44-.01.66,0,5.4,1.02,10.55,2.89,15.28,3.12,7.94,8.6,14.68,15.57,19.37,3.95,2.66,8.38,4.66,13.13,5.85,13.2,4.95,27.49,7.66,42.42,7.66,4.69,0,9.33-.27,13.89-.79,7.39-.84,14.57-2.36,21.48-4.47,6.43-1.96,12.64-4.45,18.56-7.42,11.25-5.62,21.51-12.95,30.42-21.66,2.13-2.07,4.18-4.22,6.14-6.44.59-.67,1.7-.33,1.79.56.55,5.44.83,10.96.83,16.54Z"/>
  <path class="cls-2" d="M321.06,114.19c.18.58.09,1.21-.25,1.71-1.66,2.45-3.41,4.83-5.25,7.14-.86,1.1-1.75,2.17-2.65,3.23-7.69,9.05-16.71,16.96-26.75,23.41-3.65,2.36-7.44,4.52-11.35,6.47-2.37,1.19-4.78,2.3-7.24,3.33-.06.03-.13.06-.2.08-3.62,1.52-7.33,2.86-11.12,4.01-4.44,1.35-8.98,2.54-13.57,3.3-1.56.26-2.41-1.75-1.17-2.72,7.56-5.96,13.16-12.52,16.95-22.87,4.49-12.26,4.11-26.64-1.44-38.51-10.41-22.27-34.07-35.74-58-41.39-39.88-9.41-85.11.76-113.51,30.29-11.82,12.28-20.46,27.35-32.42,39.5-13.86,14.09-30.7,20.16-50.05,17.78-.84-.1-1.45-.87-1.37-1.72.06-.57.12-1.13.18-1.7,4.55-40.74,24.03-76.97,52.85-103.09.09-.08.19-.17.28-.25,7.85-7.1,16.41-13.44,25.54-18.92.47-.29.94-.57,1.41-.85.48-.28.96-.56,1.45-.84,4.74-2.72,9.63-5.2,14.67-7.44,2.57-1.15,5.17-2.23,7.81-3.24,8.71-3.37,17.78-6,27.13-7.84,10.29-2.02,20.92-3.08,31.8-3.08,73.2,0,135.2,47.98,156.27,114.19Z"/>
</svg>